<svg width="500" xmlns="http://www.w3.org/2000/svg" height="500" id="screenshot-afc63207-2e5f-80a4-8006-c1acbcbc78ce" viewBox="0 0 500 500" xmlns:xlink="http://www.w3.org/1999/xlink" fill="none" version="1.1"><g id="shape-afc63207-2e5f-80a4-8006-c1acbcbc78ce"><defs><clipPath id="frame-clip-afc63207-2e5f-80a4-8006-c1acbcbc78ce-render-1" class="frame-clip frame-clip-def"><rect rx="0" ry="0" x="0" y="0" width="500.0000000000002" height="500" transform="matrix(1.000000, 0.000000, 0.000000, 1.000000, 0.000000, 0.000000)"/></clipPath></defs><g class="frame-container-wrapper"><g class="frame-container-blur"><g class="frame-container-shadows"><g clip-path="url(#frame-clip-afc63207-2e5f-80a4-8006-c1acbcbc78ce-render-1)" fill="none"><g class="fills" id="fills-afc63207-2e5f-80a4-8006-c1acbcbc78ce"><rect width="500.0000000000002" height="500" class="frame-background" x="0" transform="matrix(1.000000, 0.000000, 0.000000, 1.000000, 0.000000, 0.000000)" style="fill: rgb(214, 180, 252); fill-opacity: 0;" ry="0" rx="0" y="0"/></g><g class="frame-children"><g id="shape-1cd041a0-b7b7-809a-8006-c1e7b4c0bf5d" width="500" height="500" rx="0" ry="0" style="fill: rgb(0, 0, 0);"><g id="shape-1cd041a0-b7b7-809a-8006-c1e7b4c2434f" style="display: none;"><g class="fills" id="fills-1cd041a0-b7b7-809a-8006-c1e7b4c2434f"><rect width="500" height="500" x="0" transform="matrix(1.000000, 0.000000, 0.000000, 1.000000, 0.000000, 0.000000)" style="fill: none;" ry="0" fill="none" rx="0" y="0"/></g></g><g id="shape-1cd041a0-b7b7-809a-8006-c1e7b4c2b2e4"><g class="fills" id="fills-1cd041a0-b7b7-809a-8006-c1e7b4c2b2e4"><path d="M104.16661834716797,437.5000305175781L104.16661834716797,104.1666488647461C104.16661834716797,81.1548080444336,122.82152557373047,62.50002670288086,145.83335876464844,62.50002670288086L354.1666259765625,62.50002670288086C377.1785888671875,62.50002670288086,395.8333740234375,81.1548080444336,395.8333740234375,104.1666488647461L395.8333740234375,437.5000305175781L333.3333740234375,395.8334045410156L291.6666259765625,437.5000305175781L249.99998474121094,395.8334045410156L208.33335876464844,437.5000305175781L166.66661071777344,395.8334045410156ZM187.49998474121094,145.83340454101562L312.5,145.83340454101562M187.49998474121094,229.16665649414062L312.5,229.16665649414062M270.8333740234375,312.5000305175781L312.5,312.5000305175781" fill="none" stroke-linecap="round" stroke-linejoin="round" style="fill: none;"/></g><g fill="none" stroke-linecap="round" stroke-linejoin="round" id="strokes-84791588-ebf6-80b8-8006-c450b348e467-1cd041a0-b7b7-809a-8006-c1e7b4c2b2e4" class="strokes"><g class="stroke-shape"><path d="M104.16661834716797,437.5000305175781L104.16661834716797,104.1666488647461C104.16661834716797,81.1548080444336,122.82152557373047,62.50002670288086,145.83335876464844,62.50002670288086L354.1666259765625,62.50002670288086C377.1785888671875,62.50002670288086,395.8333740234375,81.1548080444336,395.8333740234375,104.1666488647461L395.8333740234375,437.5000305175781L333.3333740234375,395.8334045410156L291.6666259765625,437.5000305175781L249.99998474121094,395.8334045410156L208.33335876464844,437.5000305175781L166.66661071777344,395.8334045410156ZM187.49998474121094,145.83340454101562L312.5,145.83340454101562M187.49998474121094,229.16665649414062L312.5,229.16665649414062M270.8333740234375,312.5000305175781L312.5,312.5000305175781" style="fill: none; stroke-width: 41.6667; stroke: rgb(23, 24, 75); stroke-opacity: 1;"/></g></g></g></g></g></g></g></g></g></g></svg>